<?xml version="1.0" standalone="no"?>
<!DOCTYPE svg PUBLIC "-//W3C//DTD SVG 20010904//EN"
 "http://www.w3.org/TR/2001/REC-SVG-20010904/DTD/svg10.dtd">
<svg version="1.0" xmlns="http://www.w3.org/2000/svg"
 width="200.000000pt" height="200.000000pt" viewBox="0 0 200.000000 200.000000"
 preserveAspectRatio="xMidYMid meet">
<metadata>
Created by potrace 1.14, written by Peter Selinger 2001-2017
</metadata>
<g transform="translate(0.000000,200.000000) scale(0.100000,-0.100000)"
fill="#000000" stroke="none">
<path d="M0 1000 l0 -1000 1000 0 1000 0 0 1000 0 1000 -1000 0 -1000 0 0
-1000z m1063 755 c57 -46 135 -142 168 -207 54 -105 62 -249 19 -344 -11 -26
-19 -49 -17 -51 2 -2 28 1 57 7 49 9 98 5 192 -16 22 -5 29 -1 43 26 39 76 69
250 44 265 -5 4 -56 8 -112 10 -108 4 -111 6 -116 63 -2 30 282 6 307 -26 15
-20 9 -118 -14 -221 -38 -169 -151 -301 -294 -342 -25 -7 -46 -14 -48 -15 -2
-1 21 -26 51 -55 34 -35 62 -75 77 -111 15 -38 29 -58 40 -58 53 0 260 100
260 125 0 17 -59 106 -95 145 l-34 35 25 30 25 30 41 -45 c46 -51 128 -186
128 -211 0 -37 -190 -147 -303 -176 -115 -29 -257 -1 -344 67 -14 11 -28 20
-32 20 -3 0 -7 -25 -9 -55 -3 -61 -22 -121 -52 -173 l-20 -34 22 -19 c52 -44
207 -119 247 -119 9 0 46 110 59 175 7 37 10 40 45 43 l38 3 -6 -38 c-9 -53
-42 -164 -65 -217 -23 -54 -37 -57 -133 -25 -235 78 -372 225 -378 405 -1 30
-4 54 -6 54 -3 0 -17 -8 -31 -19 -48 -33 -106 -58 -164 -71 -38 -9 -59 -19
-63 -31 -12 -37 44 -279 65 -279 17 0 127 42 164 63 l41 23 24 -29 c13 -15 22
-29 20 -31 -42 -36 -236 -109 -277 -104 -24 3 -31 13 -60 92 -44 119 -60 225
-45 312 16 90 63 184 118 232 25 22 45 42 45 45 0 2 -14 7 -31 11 -49 10 -131
54 -172 94 l-37 36 -73 -74 c-40 -41 -83 -96 -97 -122 -24 -47 -24 -48 -5 -63
11 -8 55 -32 97 -53 79 -38 88 -49 70 -95 -7 -15 -14 -14 -81 18 -94 45 -191
113 -191 134 0 32 92 173 153 234 108 109 246 160 370 136 28 -5 52 -8 54 -6
2 2 -6 26 -18 52 -15 33 -23 78 -27 136 l-5 88 -69 11 c-39 7 -96 9 -131 5
-104 -11 -100 -8 -93 -80 3 -35 13 -84 20 -109 l14 -46 -29 -16 c-16 -8 -34
-12 -39 -9 -23 14 -58 261 -41 293 21 39 244 56 356 27 124 -33 229 -112 272
-206 10 -21 20 -38 23 -38 3 0 14 18 24 41 20 42 91 121 136 150 l25 16 -29
56 c-16 31 -57 87 -92 124 l-62 67 -42 -40 c-23 -22 -57 -61 -76 -87 l-35 -47
-34 16 -34 16 29 41 c55 78 165 186 190 186 5 0 33 -20 63 -45z"/>
<path d="M794 1376 c-9 -24 12 -121 37 -173 23 -47 104 -137 117 -129 14 8 -4
117 -27 172 -12 28 -44 73 -71 99 -41 41 -50 46 -56 31z"/>
<path d="M1143 1338 c-61 -66 -95 -148 -91 -222 l3 -51 47 47 c56 57 85 115
100 197 16 88 3 94 -59 29z"/>
<path d="M573 1083 c-34 -7 -28 -20 24 -53 62 -40 102 -50 193 -50 96 0 113
10 69 40 -80 58 -190 82 -286 63z"/>
<path d="M1229 1067 c-31 -13 -71 -34 -89 -47 -28 -20 -30 -24 -15 -33 10 -5
58 -7 109 -5 77 3 99 8 144 33 55 30 79 51 68 62 -3 3 -41 8 -83 10 -65 3 -87
0 -134 -20z"/>
<path d="M833 879 c-83 -32 -216 -169 -190 -195 17 -18 118 28 172 78 47 42
95 110 95 133 0 9 -24 4 -77 -16z"/>
<path d="M1090 896 c0 -24 47 -91 95 -134 54 -50 155 -96 172 -78 11 11 -26
72 -71 116 -41 41 -116 83 -168 96 -16 3 -28 3 -28 0z"/>
<path d="M975 808 c-26 -63 -29 -181 -8 -243 11 -30 24 -50 33 -50 27 0 51 91
47 175 -4 71 -30 160 -47 160 -4 0 -16 -19 -25 -42z"/>
</g>
</svg>
